<svg xmlns="http://www.w3.org/2000/svg" viewBox="0 0 40 40" fill="none">
  <path fill="#4285F4" d="M33.6 20.3c0-.9-.1-1.8-.2-2.6H20v5h7.6c-.3 1.7-1.3 3.2-2.8 4.2v3.5h4.5c2.6-2.4 4.3-6 4.3-10.1Z"/>
  <path fill="#34A853" d="M20 34.5c3.8 0 7-1.3 9.3-3.4l-4.5-3.5c-1.3.9-2.9 1.4-4.8 1.4-3.7 0-6.8-2.5-7.9-5.8H7.5v3.6C9.8 31.9 14.5 34.5 20 34.5Z"/>
  <path fill="#FBBC05" d="M12.1 23.2c-.3-.9-.5-1.8-.5-2.7s.2-1.8.5-2.7v-3.6H7.5A14.4 14.4 0 0 0 5.5 20.5c0 2.3.6 4.5 1.9 6.4l4.7-3.7Z"/>
  <path fill="#EA4335" d="M20 11.5c2.1 0 3.9.7 5.4 2.1l4-4C27 7.2 23.8 5.5 20 5.5c-5.5 0-10.2 2.6-12.5 6.7l4.6 3.6c1.1-3.3 4.2-5.8 7.9-5.8Z"/>
</svg>
