<svg xmlns="http://www.w3.org/2000/svg" xmlns:xlink="http://www.w3.org/1999/xlink" width="2000" zoomAndPan="magnify" viewBox="0 0 1500 1499.999933" height="2000" preserveAspectRatio="xMidYMid meet" version="1.0"><defs><clipPath id="174dfef041"><path d="M 328 303.785156 L 1173 303.785156 L 1173 1196.285156 L 328 1196.285156 Z M 328 303.785156 " clip-rule="nonzero"/></clipPath><clipPath id="05eb1326fa"><path d="M 813.296875 719.5625 L 433.789062 719.5625 C 419.070312 719.5625 408.421875 705.511719 412.398438 691.34375 L 516.585938 320.035156 C 519.277344 310.445312 528.019531 303.820312 537.980469 303.820312 L 917.484375 303.820312 C 932.203125 303.820312 942.855469 317.871094 938.878906 332.039062 L 834.6875 703.347656 C 832 712.9375 823.253906 719.5625 813.296875 719.5625 Z M 566.800781 999.839844 L 620.445312 808.65625 C 624.421875 794.484375 613.773438 780.433594 599.054688 780.433594 L 403.96875 780.433594 C 394.007812 780.433594 385.265625 787.0625 382.574219 796.652344 L 328.929688 987.832031 C 324.953125 1002.003906 335.605469 1016.054688 350.324219 1016.054688 L 545.410156 1016.054688 C 555.367188 1016.054688 564.109375 1009.429688 566.800781 999.839844 Z M 665.523438 796.652344 L 561.332031 1167.957031 C 557.355469 1182.128906 568.007812 1196.179688 582.726562 1196.179688 L 962.230469 1196.179688 C 972.191406 1196.179688 980.933594 1189.554688 983.625 1179.964844 L 1087.8125 808.65625 C 1091.789062 794.484375 1081.140625 780.433594 1066.421875 780.433594 L 686.914062 780.433594 C 676.957031 780.433594 668.210938 787.0625 665.523438 796.652344 Z M 933.410156 500.160156 L 879.761719 691.34375 C 875.789062 705.511719 886.4375 719.5625 901.15625 719.5625 L 1096.242188 719.5625 C 1106.203125 719.5625 1114.945312 712.9375 1117.632812 703.347656 L 1171.28125 512.164062 C 1175.257812 497.996094 1164.605469 483.945312 1149.886719 483.945312 L 954.800781 483.945312 C 944.84375 483.945312 936.101562 490.570312 933.410156 500.160156 Z M 933.410156 500.160156 " clip-rule="nonzero"/></clipPath></defs><g clip-path="url(#174dfef041)"><g clip-path="url(#05eb1326fa)"><path fill="#ffffff" d="M 324.953125 303.820312 L 324.953125 1196.179688 L 1175.257812 1196.179688 L 1175.257812 303.820312 Z M 324.953125 303.820312 " fill-opacity="1" fill-rule="nonzero"/></g></g></svg>